<?xml version="1.0" standalone="no"?><!DOCTYPE svg PUBLIC "-//W3C//DTD SVG 1.1//EN" "http://www.w3.org/Graphics/SVG/1.1/DTD/svg11.dtd"><svg t="1650204467304" class="icon" viewBox="0 0 1024 1024" version="1.1" xmlns="http://www.w3.org/2000/svg" p-id="10013" xmlns:xlink="http://www.w3.org/1999/xlink" width="64" height="64"><defs><style type="text/css"></style></defs><path d="M311.4 532.9c88.9-19.6 117.3-99.2 78.3-189.1-15.4-35.6-77.6-157.6-103.1-207.5-13.8 11.6-25.2 24.9-33.2 39.7-30.4 56-32.5 180.3-47.8 335.5 27.7 18.4 63.3 30.7 105.8 21.4z m635.2-210c-0.8-20.8-18.9-36.4-39.4-34.3-34.5 3.5-87.6 3.5-132.9-19.4-74-37.5-42.1-91.6-103.2-148.7-61.9-57.9-220.7-64.2-327.3-18.5 41.8 84.9 103.1 211.6 117.8 252.6 42.2 118.4-23.1 214.6-124 245.1-59.1 17.9-105.7 8.2-140.6-10.5-3 23.7-6.4 48-10.3 72.7-10.9 68.4-25.5 125.1-39.9 169.8-7.7 11-12.2 24.3-12.2 38.7 0 37.4 30.3 67.7 67.7 67.7 3.5 0 6.9-0.3 10.3-0.8l0.6 0.6h473c1.1 0.1 2.3 0.2 3.4 0.2 22.4 0 40.6-18.2 40.6-40.6 0-6.6-1.6-12.9-4.4-18.4-16.4-65.7-56.6-121.8-110.8-158.4 2.1-44.4 12.5-85.2 37.8-112 52.7-55.9 185.2-14.4 257.1-109.2 35.4-46.9 38.5-128 36.7-176.6z m-332.1 17.4c-28.2 0-51.1-22.9-51.1-51.2 0-28.3 22.9-51.2 51.1-51.2 28.2 0 51.1 22.9 51.1 51.2 0 28.3-22.9 51.2-51.1 51.2z" p-id="10014" fill="#785741"></path></svg>